HIERARCHY
ROOT Hips
{
  OFFSET -33.9132 29.2015 117.021
  CHANNELS 6 Xposition Yposition Zposition Zrotation Xrotation Yrotation
  JOINT LeftUpLeg
  {
    OFFSET 8.64259 1.95398 -2.38835
    CHANNELS 3 Zrotation Xrotation Yrotation
    JOINT LeftLeg
    {
      OFFSET 43.7702 0 0
      CHANNELS 3 Zrotation Xrotation Yrotation
      JOINT LeftFoot
      {
        OFFSET 40.6238 0 0
        CHANNELS 3 Zrotation Xrotation Yrotation
        JOINT LeftToeBase
        {
          OFFSET 12.7242 0 0
          CHANNELS 3 Zrotation Xrotation Yrotation
          End Site
          {
            OFFSET 0 0 0
          }
        }
      }
    }
  }
  JOINT RightUpLeg
  {
    OFFSET -8.2249 1.95398 -2.59336
    CHANNELS 3 Zrotation Xrotation Yrotation
    JOINT RightLeg
    {
      OFFSET 43.5653 0 0
      CHANNELS 3 Zrotation Xrotation Yrotation
      JOINT RightFoot
      {
        OFFSET 40.6238 0 0
        CHANNELS 3 Zrotation Xrotation Yrotation
        JOINT RightToeBase
        {
          OFFSET 12.7242 0 0
          CHANNELS 3 Zrotation Xrotation Yrotation
          End Site
          {
            OFFSET 0 0 0
          }
        }
      }
    }
  }
  JOINT Spine
  {
    OFFSET 0.165834 0.87714 6.61349
    CHANNELS 3 Zrotation Xrotation Yrotation
    JOINT Spine1
    {
      OFFSET 7.38963 1.71661e-005 0
      CHANNELS 3 Zrotation Xrotation Yrotation
      JOINT Spine2
      {
        OFFSET 11.9445 1.14441e-005 0
        CHANNELS 3 Zrotation Xrotation Yrotation
        JOINT Spine3
        {
          OFFSET 14.7254 4.19617e-005 0
          CHANNELS 3 Zrotation Xrotation Yrotation
          JOINT Spine4
          {
            OFFSET 10.9679 0 0
            CHANNELS 3 Zrotation Xrotation Yrotation
            JOINT RightShoulder
            {
              OFFSET 2.46616 -1.6653 3.69651
              CHANNELS 3 Zrotation Xrotation Yrotation
              JOINT RightArm
              {
                OFFSET 13.0012 0 0
                CHANNELS 3 Zrotation Xrotation Yrotation
                JOINT RightForeArm
                {
                  OFFSET 28.7848 1.62311e-005 0
                  CHANNELS 3 Zrotation Xrotation Yrotation
                  JOINT RightHand
                  {
                    OFFSET 26.5688 1.62095e-005 0
                    CHANNELS 3 Zrotation Xrotation Yrotation
                    End Site
                    {
                      OFFSET 0 0 0
                    }
                  }
                }
              }
            }
            JOINT LeftShoulder
            {
              OFFSET 2.38034 -1.29275 -3.7523
              CHANNELS 3 Zrotation Xrotation Yrotation
              JOINT LeftArm
              {
                OFFSET 16.3182 6.07031e-005 0
                CHANNELS 3 Zrotation Xrotation Yrotation
                JOINT LeftForeArm
                {
                  OFFSET 27.0901 0 0
                  CHANNELS 3 Zrotation Xrotation Yrotation
                  JOINT LeftHand
                  {
                    OFFSET 24.5451 1.51738e-005 0
                    CHANNELS 3 Zrotation Xrotation Yrotation
                    End Site
                    {
                      OFFSET 0 0 0
                    }
                  }
                }
              }
            }
            JOINT Neck
            {
              OFFSET 5.0226 -0.0266342 0
              CHANNELS 3 Zrotation Xrotation Yrotation
              JOINT Head
              {
                OFFSET 6.69364 2.86102e-005 0
                CHANNELS 3 Zrotation Xrotation Yrotation
                End Site
                {
                  OFFSET 0 0 0
                }
              }
            }
          }
        }
      }
    }
  }
}
MOTION
Frames:	6
Frame Time:	0.0416667
220.165 100.457 226.119 -103.728 -58.8336 -101.479 -175.104 -2.00502 89.6941 -14.8216 15.4424 1.17104 64.6528 3.43589 3.51513 31.4598 0.359923 2.17422 172.76 -5.33761 86.525 -12.4623 -14.502 -2.4543 65.5104 -4.08729 0.286135 23.7935 1.19595 3.74338 0.140269 8.22825 -90.0287 10.4175 0.266309 -0.0804356 -1.25347 0.262505 -0.0920843 -23.7888 0.27816 0.00427277 -3.7762 0.278163 0.0042759 89.1603 -30.1108 -108.374 49.7088 4.23488 -7.19179 -4.90166 -35.6544 -5.2343 -20.2032 2.45185 -19.3835 -90.0848 -51.2487 78.868 -21.7412 -9.33723 -15.5159 -11.9628 23.4646 -0.0293715 -11.7399 5.55443 -62.9155 6.07656 0.310609 -5.45892 -4.87608 1.30135 2.85721 
220.178 100.389 226.304 -104.109 -58.4054 -101.927 -175.413 -2.47334 89.2491 -14.6844 15.3617 1.40868 64.1341 3.13163 3.33439 33.189 -0.409462 6.35811 172.72 -5.07582 86.3049 -13.6156 -14.7489 -2.61601 65.9335 -4.29132 0.194709 23.9723 1.07886 3.88202 0.165383 8.25915 -90.0319 10.3557 0.314945 -0.0907878 -1.31519 0.310627 -0.104562 -23.8507 0.327655 0.00827801 -3.83801 0.327665 0.00827406 88.9136 -29.5313 -109.1 50.2432 4.12863 -6.77461 -4.83111 -34.418 -5.20054 -20.9855 2.57042 -19.4798 -90.1929 -51.2695 78.713 -22.1325 -10.9446 -15.685 -11.1194 25.2656 -0.0297926 -12.4532 5.99328 -62.4905 6.03255 0.131618 -5.5456 -4.74811 1.14224 2.91301 
220.139 100.324 226.365 -104.259 -58.4685 -102.045 -175.263 -2.23981 89.3803 -15.3736 14.9681 1.2843 64.9202 3.7387 3.21605 32.7598 0.268671 4.02393 172.607 -4.68973 86.2361 -14.6066 -14.8353 -2.48387 66.2705 -4.51215 0.0310459 24.1874 1.00731 3.81212 0.115993 8.27324 -90.0525 10.3276 0.207107 -0.122191 -1.34329 0.201539 -0.131195 -23.8786 0.234269 -0.0542934 -3.86594 0.234249 -0.0543059 88.9621 -29.4261 -109.047 50.2509 4.15041 -6.69716 -4.83976 -34.5722 -5.20456 -21.2841 2.60832 -19.4719 -90.0452 -51.3286 78.9428 -21.9585 -10.0134 -15.5603 -11.556 25.2118 -0.0297795 -12.3577 5.80306 -61.2833 5.92676 0.36084 -5.45361 -4.68076 1.34559 2.96506 
220.173 100.203 226.385 -104.498 -58.3093 -102.246 -174.663 -1.96629 89.8085 -16.3354 15.6266 0.598443 65.1178 3.81774 2.92325 33.4871 0.468785 4.43781 172.728 -4.18391 86.2491 -15.9481 -14.7464 -2.57814 66.6958 -4.87269 -0.0117303 24.5188 0.83107 3.93518 0.117021 8.33458 -90.0817 10.2048 0.196002 -0.178861 -1.46611 0.187906 -0.187321 -24.0013 0.240689 -0.111696 -3.9887 0.24068 -0.111687 89.3048 -29.2327 -108.446 50.1326 4.12643 -6.93559 -4.87097 -35.1211 -5.21942 -20.2144 2.55382 -19.9608 -90.1693 -51.5244 78.8016 -21.4682 -9.78803 -15.8151 -11.7061 24.6739 -0.0296497 -13.1879 6.04816 -59.3843 6.09174 0.321959 -5.19036 -4.31525 1.27499 2.87543 
220.206 100.036 226.344 -104.803 -57.9821 -102.68 -174.665 -1.42581 89.5562 -17.7125 15.5966 0.513182 65.6979 4.53576 4.12774 33.5389 0.347623 4.82986 172.514 -3.31852 85.8965 -17.9644 -15.1675 -2.48019 67.4754 -5.45266 -0.153528 24.7019 0.748874 3.95007 0.14836 8.39187 -90.0654 10.0903 0.265842 -0.152015 -1.58063 0.258887 -0.163566 -24.116 0.299235 -0.0650913 -4.10334 0.299216 -0.0650995 88.8797 -29.707 -109.093 49.3503 4.57596 -6.62321 -4.84818 -34.7211 -5.20854 -19.9281 2.63267 -20.6342 -90.3218 -51.2439 78.5178 -21.3861 -9.48411 -16.1101 -11.817 25.4006 -0.0298259 -13.8572 6.17521 -57.0889 5.8862 0.333725 -5.33804 -3.78523 1.32014 2.69681 
220.338 99.7868 226.278 -104.493 -57.1966 -102.827 -175.128 -0.724896 88.7772 -19.2179 14.0679 0.65858 66.2152 4.70959 3.44597 33.7307 -0.246124 6.66322 172.534 -1.5685 85.3665 -21.0173 -15.6424 -2.63865 68.4273 -6.08711 0.0329637 25.0267 0.739397 3.4957 0.195577 8.43044 -90.0608 10.0133 0.362155 -0.15056 -1.65762 0.355161 -0.166364 -24.1932 0.390638 -0.0347676 -4.18052 0.39065 -0.0347605 89.2473 -28.9323 -108.686 49.777 4.37565 -6.65587 -4.80531 -33.9563 -5.18851 -20.8685 2.73105 -20.4527 -90.5617 -51.5585 78.2327 -21.3017 -9.81488 -16.3117 -11.6333 26.6954 -0.0301572 -14.2754 6.13537 -54.5444 5.61302 0.328767 -5.25414 -3.9116 1.277 3.4451 
